<?xml version="1.0" standalone="no"?><!DOCTYPE svg PUBLIC "-//W3C//DTD SVG 1.1//EN" "http://www.w3.org/Graphics/SVG/1.1/DTD/svg11.dtd"><svg t="1544855746572" class="icon" style="" viewBox="0 0 1024 1024" version="1.1" xmlns="http://www.w3.org/2000/svg" p-id="2854" xmlns:xlink="http://www.w3.org/1999/xlink" width="200" height="200"><defs><style type="text/css"></style></defs><path d="M192 304a64 64 0 0 0 62.4-48h100.8a30.4 30.4 0 0 1 24 14.4l97.6 147.2a60.8 60.8 0 0 0 49.6 30.4h102.4a64 64 0 1 0 0-32h-102.4a30.4 30.4 0 0 1-24-14.4l-97.6-147.2a60.8 60.8 0 0 0-49.6-30.4h-100.8a64 64 0 1 0-62.4 80z m497.6 96a32 32 0 1 1-32 32 32 32 0 0 1 32-32zM192 208a32 32 0 1 1-32 32 32 32 0 0 1 32-32z" fill="#0084FF" p-id="2855"></path><path d="M560 320a64 64 0 0 0 62.4-48H720a16 16 0 0 0 0-32h-97.6a64 64 0 1 0-62.4 80z m0-96a32 32 0 1 1-32 32 32 32 0 0 1 32-32zM320 368a64 64 0 1 0 64 64 64 64 0 0 0-64-64z m0 96a32 32 0 1 1 32-32 32 32 0 0 1-32 32zM912 624a64 64 0 0 0-126.4-16h-132.8a62.4 62.4 0 0 0-49.6 27.2l-97.6 134.4a30.4 30.4 0 0 1-24 14.4h-99.2a64 64 0 1 0 0 32h99.2a62.4 62.4 0 0 0 49.6-27.2l97.6-134.4a30.4 30.4 0 0 1 24-14.4h134.4a64 64 0 0 0 124.8-16zM320 832a32 32 0 1 1 32-32 32 32 0 0 1-32 32z m528-176a32 32 0 1 1 32-32 32 32 0 0 1-32 32z" fill="#0084FF" p-id="2856" data-spm-anchor-id="a313x.7781069.0.i11"></path><path d="M688 736a64 64 0 1 0 64 64 64 64 0 0 0-64-64z m0 96a32 32 0 1 1 32-32 32 32 0 0 1-32 32zM768 272h48a16 16 0 0 0 0-32h-48a16 16 0 0 0 0 32zM832 784h-48a16 16 0 0 0 0 32h48a16 16 0 0 0 0-32zM864 272h32a16 16 0 0 0 0-32h-32a16 16 0 0 0 0 32zM368 160h48a16 16 0 0 0 0-32h-48a16 16 0 0 0 0 32zM436.8 187.2a16 16 0 0 0 11.2 4.8 16 16 0 0 0 11.2-27.2 16 16 0 0 0-22.4 22.4zM288 160h32a16 16 0 0 0 0-32h-32a16 16 0 0 0 0 32zM528 864h-48a16 16 0 0 0 0 32h48a16 16 0 0 0 0-32zM608 864h-32a16 16 0 0 0 0 32h32a16 16 0 0 0 0-32zM432 864h-32a16 16 0 0 0 0 32h32a16 16 0 0 0 0-32zM912 784h-32a16 16 0 0 0 0 32h32a16 16 0 0 0 0-32zM433.6 592a64 64 0 1 0 0-32H254.4a64 64 0 1 0 0 32z m62.4-48a32 32 0 1 1-32 32 32 32 0 0 1 32-32z m-304 64a32 32 0 1 1 32-32 32 32 0 0 1-32 32z" fill="#0084FF" p-id="2857"></path></svg>